# xmcd
#
# Track frame offsets: 
#        150
#        10557
#        20550
#        32832
#        43900
#        58872
#        71050
#        83315
#        92460
#        102297
#
# Disc length: 1547 seconds
#
# Revision: 5
# Processed by: cddbd v1.5.2PL0 Copyright (c) Steve Scherf et al.
# Submitted via: ExactAudioCopy v0.95b4
#
DISCID=7306090a
DTITLE=Various Artist - Country Gold - Volume 5
DYEAR=2002
DGENRE=Country
TTITLE0=Willie Nelson - Broken Bromises
TTITLE1=Kitty Wells - Release Me
TTITLE2=George Jones - Least Of All
TTITLE3=Roger Miller - Husbands And Wives
TTITLE4=Ernest Tubb and Marty Robbins - Rainbow At Midnight
TTITLE5=Willie Nelson - Happiness Lives Next Door
TTITLE6=Kittly Wells - Lonely Side Of Town
TTITLE7=Roger Miller - Chug-A-Lug
TTITLE8=George Jones - World's Worst Loser
TTITLE9=Faron Young - It's Four In The Morning
EXTD=
EXTT0=
EXTT1=
EXTT2=
EXTT3=
EXTT4=
EXTT5=
EXTT6=
EXTT7=
EXTT8=
EXTT9=
PLAYORDER=
